<?xml version="1.0" encoding="utf-8"?>
<!-- Generator: Adobe Illustrator 24.2.1, SVG Export Plug-In . SVG Version: 6.00 Build 0)  -->
<svg version="1.1" id="Layer_1" xmlns="http://www.w3.org/2000/svg" xmlns:xlink="http://www.w3.org/1999/xlink" x="0px" y="0px"
	 viewBox="0 0 1025 1024" style="enable-background:new 0 0 1025 1024;" xml:space="preserve">
<style type="text/css">
	.st0{fill:#285C4D;}
	.st1{fill:none;}
</style>
<path class="st0" d="M928,129c-23.3,0-45.2,15.5-65.5,46.5S830,238.7,826,272c81.3,88,139,172.8,173,254.5s34.7,138.8,2,171.5
	c-30,30-70.7,53.7-122,71c-10-42-38.3-96.5-85-163.5s-104.2-134.7-172.5-203s-136-125.7-203-172S297,155.7,255,145
	c17.3-50.7,41.3-91,72-121c30.7-29.3,81.5-31.2,152.5-5.5S626.7,91.3,708,160c1.3-1.3,6.8-5.8,16.5-13.5s16-12.5,19-14.5
	s9.3-6.5,19-13.5s17.2-11.7,22.5-14s12.8-6.3,22.5-12s18.3-9.5,26-11.5s16.7-4.5,27-7.5s20.8-5.2,31.5-6.5s21.7-2,33-2
	c9.3,0,17.5,3.2,24.5,9.5s10.3,14.2,10,23.5s-3.3,16.8-9,22.5S937.3,129,928,129z M576,449c104,104,183,207.7,237,311
	c-24,32.7-50.7,63.7-80,93c-40,40-83.5,72.8-130.5,98.5s-91.2,43.7-132.5,54s-84.3,16.2-129,17.5c-44.7,1.3-82.7,0-114-4
	s-62.3-10-93-18s-51-13.8-61-17.5s-17.7-6.8-23-9.5c-2.7-5.3-5.8-12.8-9.5-22.5s-9.5-30-17.5-61s-14-62-18-93S-0.3,728.7,1,684
	s7.2-87.7,17.5-129S47,469.5,73,422.5S131.7,332,171,292c30-29.3,61-56,93-80C368,266,472,345,576,449z"/>
<rect class="st1" width="1025" height="1024"/>
</svg>
