<?xml version="1.0" encoding="utf-8"?>
<!-- Generator: Adobe Illustrator 24.2.1, SVG Export Plug-In . SVG Version: 6.00 Build 0)  -->
<svg version="1.1" id="Layer_1" xmlns="http://www.w3.org/2000/svg" xmlns:xlink="http://www.w3.org/1999/xlink" x="0px" y="0px"
	 viewBox="0 0 5859 1024" style="enable-background:new 0 0 5859 1024;" xml:space="preserve">
<style type="text/css">
	.st0{fill:#FFFFFF;}
	.st1{fill:none;}
	.st2{font-family:'Arvo';}
	.st3{font-size:1296px;}
</style>
<g>
	<path class="st0" d="M393.3,80.5c10.3,0,28.8,2.3,59,13.2c61.7,22.3,130.4,65.2,204.1,127.4l56.2,47.4l40.2-40.2
		c-2.8,11.3-4.9,22.6-6.2,34.1l-4.4,36.7l25.1,27.1c74.6,80.7,127.7,158.4,157.9,230.9c24.8,59.7,19.7,81.7,18.8,84.7
		c-6.6,6.5-14,12.6-22.4,18.4c-15.9-30.6-36.4-64-61.9-100.6c-49.1-70.6-110.2-142.5-181.6-213.8C606.7,274.5,534.6,213.5,464,164.7
		c-36.3-25.1-69.5-45.5-99.9-61.4c5.7-7.9,11.7-15,18-21.4C382.9,81.7,386.1,80.5,393.3,80.5 M272,308
		c33.1,19.7,66.5,42.3,99.6,67.4c48.9,37.1,98.6,80.9,147.8,130.1c49.2,49.2,93,98.9,130.2,147.7c25.2,33,47.7,66.2,67.4,99.2
		c-12.9,15.1-26.4,29.9-40.6,44c-34.4,34.4-72.2,63-112.3,84.9c-40.8,22.3-79,38-113.6,46.6c-35.6,8.9-73.3,14-112,15.1
		c-10.3,0.3-20.4,0.5-29.9,0.5c-27.5,0-51.6-1.3-71.6-3.9c-27.8-3.5-55.7-9-82.9-16.1c-21.2-5.5-34.4-9.2-42.5-11.6
		c-2.3-7.9-5.9-20.7-11.3-41.4c-7.1-27.7-12.6-55.7-16.1-83.2c-3.4-26.7-4.6-60.6-3.4-100.9c1.2-38.7,6.3-76.4,15.1-112
		c8.6-34.4,24.4-72.5,46.9-113.2c22.2-40.2,50.7-78.1,84.5-112.6C242,334.5,256.9,320.9,272,308 M393.3,0.5
		c-27.8,0-49.9,7.8-66.3,23.5c-30.7,30-54.7,70.3-72,121c42,10.7,96.5,39.2,163.5,85.5c67,46.3,134.7,103.7,203,172
		s125.8,136,172.5,203c46.7,67,75,121.5,85,163.5c51.3-17.3,92-41,122-71c32.7-32.7,32-89.8-2-171.5C965,444.8,907.3,360,826,272
		c4-33.3,16.2-65.5,36.5-96.5c20.3-31,42.2-46.5,65.5-46.5c9.3,0,16.8-2.8,22.5-8.5c5.7-5.7,8.7-13.2,9-22.5c0.3-9.3-3-17.2-10-23.5
		c-7-6.3-15.2-9.5-24.5-9.5c-11.3,0-22.3,0.7-33,2c-10.7,1.3-21.2,3.5-31.5,6.5c-10.3,3-19.3,5.5-27,7.5c-7.7,2-16.3,5.8-26,11.5
		c-9.7,5.7-17.2,9.7-22.5,12c-5.3,2.3-12.8,7-22.5,14c-9.7,7-16,11.5-19,13.5s-9.3,6.8-19,14.5c-9.7,7.7-15.2,12.2-16.5,13.5
		C626.7,91.3,550.5,44.2,479.5,18.5C446.4,6.5,417.6,0.5,393.3,0.5L393.3,0.5z M264,212c-32,24-63,50.7-93,80
		c-39.3,40-72,83.5-98,130.5S28.8,513.7,18.5,555C8.2,596.3,2.3,639.3,1,684c-1.3,44.7,0,82.5,4,113.5c4,31,10,62,18,93
		s13.8,51.3,17.5,61c3.7,9.7,6.8,17.2,9.5,22.5c5.3,2.7,13,5.8,23,9.5c10,3.7,30.3,9.5,61,17.5s61.7,14,93,18
		c23.5,3,50.8,4.5,81.8,4.5c10.3,0,21.1-0.2,32.3-0.5c44.7-1.3,87.7-7.2,129-17.5c41.3-10.3,85.5-28.3,132.5-54
		C649.5,925.8,693,893,733,853c29.3-29.3,56-60.3,80-93c-54-103.3-133-207-237-311S368,266,264,212L264,212z"/>
</g>
<rect class="st1" width="1025" height="1024"/>
<text transform="matrix(1 0 0 1 999.718 994.9825)" class="st0 st2 st3">ACORN</text>
</svg>
